<svg xmlns="http://www.w3.org/2000/svg" width="671.133" height="385.619" viewBox="0 0 671.133 385.619"><g transform="translate(0 0)"><circle cx="34.903" cy="34.903" r="34.903" transform="translate(110.513 272.491)" fill="#f2f2f2"/><circle cx="34.903" cy="34.903" r="34.903" transform="translate(116.189 267.383)" fill="#2aa7de"/><rect width="431.841" height="1.178" transform="translate(179.2 263.666)" fill="#3f3d56"/><path d="M444.281,139.178H291v-3.159H221.5v3.159H67.594a10.368,10.368,0,0,0-10.368,10.368V359.429A10.368,10.368,0,0,0,67.594,369.8H444.281a10.368,10.368,0,0,0,10.368-10.368V149.546a10.368,10.368,0,0,0-10.368-10.368Z" transform="translate(-41.43 -128.189)" fill="#3f3d56"/><path d="M0,0H369.622V208.5H0Z" transform="translate(29.696 29.312)" fill="#2aa7de"/><circle cx="3.791" cy="3.791" r="3.791" transform="translate(210.4 16.043)" fill="#2aa7de"/><path d="M314.323,258.259H50.406V49.754Z" transform="translate(-20.71 -20.442)" opacity="0.1"/><circle cx="35.529" cy="35.529" r="35.529" transform="translate(52.002 151.155)" fill="#f2f2f2"/><rect width="34.527" height="7.215" transform="translate(300.435 141.76)" fill="#3f3d56"/><rect width="118.009" height="3.092" transform="translate(258.693 85.59)" fill="#3f3d56"/><rect width="118.009" height="3.092" transform="translate(258.693 95.381)" fill="#3f3d56"/><rect width="118.009" height="3.092" transform="translate(258.693 105.172)" fill="#3f3d56"/><rect width="118.009" height="3.092" transform="translate(258.693 114.963)" fill="#3f3d56"/><rect width="118.009" height="3.092" transform="translate(258.693 124.755)" fill="#3f3d56"/><rect width="14.429" height="14.429" transform="translate(362.273 33.542)" fill="#f2f2f2"/><path d="M668.976,203.306H651.455V185.785h17.521Zm-16.759-.762h16v-16h-16Z" transform="translate(-285.574 -148.636)" fill="#3f3d56"/><path d="M454.012,517.788H417.939v-2.6a.515.515,0,0,0-.515-.516H405.056a.515.515,0,0,0-.515.516v2.6h-7.73v-2.6a.515.515,0,0,0-.515-.516H383.928a.515.515,0,0,0-.515.516v2.6h-7.73v-2.6a.515.515,0,0,0-.515-.516H362.8a.515.515,0,0,0-.515.516v2.6h-7.73v-2.6a.515.515,0,0,0-.515-.516H341.671a.515.515,0,0,0-.515.516v2.6h-7.73v-2.6a.515.515,0,0,0-.515-.516H320.542a.515.515,0,0,0-.515.515v2.6H312.3v-2.6a.515.515,0,0,0-.515-.516H299.414a.515.515,0,0,0-.515.516v2.6h-7.73v-2.6a.515.515,0,0,0-.515-.516H193.773a.515.515,0,0,0-.515.516v2.6h-7.73v-2.6a.515.515,0,0,0-.515-.516H172.644a.515.515,0,0,0-.515.515v2.6H164.4v-2.6a.515.515,0,0,0-.515-.516H151.516a.515.515,0,0,0-.515.516v2.6h-7.73v-2.6a.515.515,0,0,0-.515-.516H130.387a.515.515,0,0,0-.515.516v2.6h-7.73v-2.6a.515.515,0,0,0-.515-.516H109.259a.515.515,0,0,0-.515.516v2.6h-7.73v-2.6a.515.515,0,0,0-.515-.516H88.131a.515.515,0,0,0-.515.516v2.6h-7.73v-2.6a.515.515,0,0,0-.515-.516H67a.515.515,0,0,0-.515.516v2.6h-23.7a12.368,12.368,0,0,0-12.368,12.368v5.592a12.368,12.368,0,0,0,12.368,12.368h411.23a12.368,12.368,0,0,0,12.368-12.368v-5.592a12.368,12.368,0,0,0-12.368-12.368Z" transform="translate(-30.415 -283.763)" fill="#3f3d56"/><path d="M162.361,414.822a44.775,44.775,0,1,1,44.775-44.775,44.775,44.775,0,0,1-44.775,44.775Zm0-88.371a43.6,43.6,0,1,0,43.6,43.6A43.6,43.6,0,0,0,162.361,326.45Z" transform="translate(-66.23 -205.945)" fill="#3f3d56"/><rect width="150.231" height="1.178" transform="translate(345.338 19.172)" fill="#3f3d56"/><rect width="431.841" height="1.178" transform="translate(239.292 330.239)" fill="#3f3d56"/><rect width="150.231" height="1.178" transform="translate(113.511 384.44)" fill="#3f3d56"/><rect width="17" height="15" transform="translate(277 325)" fill="#6c63ff"/><path d="M532.446,670.759H512.415V650.728h20.031Zm-19.16-.871h18.289V651.6H513.286Z" transform="translate(-228.448 -339.662)" fill="#3f3d56"/><rect width="15" height="16" transform="translate(470 13)" fill="#6c63ff"/><path d="M857.446,142.759H837.415V122.728h20.031Zm-19.16-.871h18.289V123.6H838.286Z" transform="translate(-361.977 -122.728)" fill="#3f3d56"/><rect width="17" height="15" transform="translate(635 325)" fill="#6c63ff"/><path d="M1139.441,670.759H1119.41V650.728h20.031Zm-19.16-.871h18.289V651.6h-18.289Z" transform="translate(-477.837 -339.662)" fill="#3f3d56"/><path d="M998.9,312.42h-1.4V274.03a22.219,22.219,0,0,0-22.219-22.219H893.945a22.219,22.219,0,0,0-22.219,22.219V484.637a22.219,22.219,0,0,0,22.219,22.219h81.333A22.219,22.219,0,0,0,997.5,484.637V339.746h1.4Z" transform="translate(-376.074 -175.763)" fill="#3f3d56"/><path d="M997.045,280.172v210.3a16.594,16.594,0,0,1-16.593,16.6H898.726a16.593,16.593,0,0,1-16.59-16.593v-210.3a16.592,16.592,0,0,1,16.589-16.59h9.917a7.882,7.882,0,0,0,7.3,10.858h46.6a7.882,7.882,0,0,0,7.3-10.858h10.616a16.592,16.592,0,0,1,16.592,16.591Z" transform="translate(-380.351 -180.599)" fill="#2aa7de"/><rect width="24.345" height="7.215" transform="translate(547.065 221.646)" fill="#3f3d56"/><rect width="83.21" height="3.092" transform="translate(517.632 165.475)" fill="#3f3d56"/><rect width="83.21" height="3.092" transform="translate(517.632 175.266)" fill="#3f3d56"/><rect width="83.21" height="3.092" transform="translate(517.632 185.058)" fill="#3f3d56"/><rect width="83.21" height="3.092" transform="translate(517.632 194.848)" fill="#3f3d56"/><rect width="83.21" height="3.092" transform="translate(517.632 204.639)" fill="#3f3d56"/><rect width="14.429" height="14.429" transform="translate(547.716 124.414)" fill="#f2f2f2"/><path d="M969.474,340.032v17.521H987V340.032Zm16.761,16.761h-16v-16h16Z" transform="translate(-416.235 -212.01)" fill="#3f3d56"/><path d="M997.045,547.273v22.458a16.594,16.594,0,0,1-16.593,16.6H898.726a16.593,16.593,0,0,1-16.59-16.593V456.492l68.853,54.4,1.178.931,12.808,10.116,1.2.948Z" transform="translate(-380.351 -259.858)" opacity="0.1"/><circle cx="25.844" cy="25.844" r="25.844" transform="translate(526.323 267.965)" fill="#f2f2f2"/><path d="M314.841,705.783A51.255,51.255,0,1,1,366.1,654.527,51.255,51.255,0,0,1,314.841,705.783Zm0-101.332a50.077,50.077,0,1,0,50.077,50.077A50.077,50.077,0,0,0,314.841,604.45Z" transform="translate(-126.215 -320.164)" fill="#3f3d56"/><path d="M957.989,610.078a32.4,32.4,0,1,1,32.4-32.4A32.4,32.4,0,0,1,957.989,610.078Zm0-63.627a31.224,31.224,0,1,0,31.224,31.224,31.225,31.225,0,0,0-31.224-31.224Z" transform="translate(-398.203 -296.334)" fill="#3f3d56"/></g></svg>