<svg xmlns="http://www.w3.org/2000/svg" xmlns:xlink="http://www.w3.org/1999/xlink" width="460" height="284" viewBox="0 0 460 284">
  <defs>
    <clipPath id="clip-path">
      <rect width="460" height="284" fill="none"/>
    </clipPath>
  </defs>
  <g id="Dot" transform="translate(-120.054 -1084.582)">
    <g id="Repeat_Grid_2" data-name="Repeat Grid 2" transform="translate(120.054 1084.582)" opacity="0.21" clip-path="url(#clip-path)">
      <g transform="translate(-140.054 -1084.582)">
        <circle id="Ellipse_11" data-name="Ellipse 11" cx="2.5" cy="2.5" r="2.5" transform="translate(140.054 1084.582)" fill="#fff" opacity="0.67"/>
      </g>
      <g transform="translate(-115.054 -1084.582)">
        <circle id="Ellipse_11-2" data-name="Ellipse 11" cx="2.5" cy="2.5" r="2.5" transform="translate(140.054 1084.582)" fill="#fff" opacity="0.67"/>
      </g>
      <g transform="translate(-90.054 -1084.582)">
        <circle id="Ellipse_11-3" data-name="Ellipse 11" cx="2.5" cy="2.5" r="2.5" transform="translate(140.054 1084.582)" fill="#fff" opacity="0.67"/>
      </g>
      <g transform="translate(-65.054 -1084.582)">
        <circle id="Ellipse_11-4" data-name="Ellipse 11" cx="2.5" cy="2.5" r="2.5" transform="translate(140.054 1084.582)" fill="#fff" opacity="0.67"/>
      </g>
      <g transform="translate(-40.054 -1084.582)">
        <circle id="Ellipse_11-5" data-name="Ellipse 11" cx="2.5" cy="2.5" r="2.5" transform="translate(140.054 1084.582)" fill="#fff" opacity="0.67"/>
      </g>
      <g transform="translate(-15.054 -1084.582)">
        <circle id="Ellipse_11-6" data-name="Ellipse 11" cx="2.5" cy="2.5" r="2.5" transform="translate(140.054 1084.582)" fill="#fff" opacity="0.67"/>
      </g>
      <g transform="translate(9.946 -1084.582)">
        <circle id="Ellipse_11-7" data-name="Ellipse 11" cx="2.5" cy="2.5" r="2.5" transform="translate(140.054 1084.582)" fill="#fff" opacity="0.67"/>
      </g>
      <g transform="translate(34.946 -1084.582)">
        <circle id="Ellipse_11-8" data-name="Ellipse 11" cx="2.5" cy="2.5" r="2.5" transform="translate(140.054 1084.582)" fill="#fff" opacity="0.67"/>
      </g>
      <g transform="translate(59.946 -1084.582)">
        <circle id="Ellipse_11-9" data-name="Ellipse 11" cx="2.5" cy="2.5" r="2.5" transform="translate(140.054 1084.582)" fill="#fff" opacity="0.67"/>
      </g>
      <g transform="translate(84.946 -1084.582)">
        <circle id="Ellipse_11-10" data-name="Ellipse 11" cx="2.5" cy="2.5" r="2.5" transform="translate(140.054 1084.582)" fill="#fff" opacity="0.67"/>
      </g>
      <g transform="translate(109.946 -1084.582)">
        <circle id="Ellipse_11-11" data-name="Ellipse 11" cx="2.5" cy="2.5" r="2.5" transform="translate(140.054 1084.582)" fill="#fff" opacity="0.67"/>
      </g>
      <g transform="translate(134.946 -1084.582)">
        <circle id="Ellipse_11-12" data-name="Ellipse 11" cx="2.5" cy="2.5" r="2.5" transform="translate(140.054 1084.582)" fill="#fff" opacity="0.67"/>
      </g>
      <g transform="translate(159.946 -1084.582)">
        <circle id="Ellipse_11-13" data-name="Ellipse 11" cx="2.5" cy="2.5" r="2.5" transform="translate(140.054 1084.582)" fill="#fff" opacity="0.67"/>
      </g>
      <g transform="translate(184.946 -1084.582)">
        <circle id="Ellipse_11-14" data-name="Ellipse 11" cx="2.5" cy="2.5" r="2.5" transform="translate(140.054 1084.582)" fill="#fff" opacity="0.67"/>
      </g>
      <g transform="translate(209.946 -1084.582)">
        <circle id="Ellipse_11-15" data-name="Ellipse 11" cx="2.5" cy="2.5" r="2.5" transform="translate(140.054 1084.582)" fill="#fff" opacity="0.67"/>
      </g>
      <g transform="translate(234.946 -1084.582)">
        <circle id="Ellipse_11-16" data-name="Ellipse 11" cx="2.5" cy="2.5" r="2.5" transform="translate(140.054 1084.582)" fill="#fff" opacity="0.67"/>
      </g>
      <g transform="translate(259.946 -1084.582)">
        <circle id="Ellipse_11-17" data-name="Ellipse 11" cx="2.5" cy="2.5" r="2.5" transform="translate(140.054 1084.582)" fill="#fff" opacity="0.67"/>
      </g>
      <g transform="translate(284.946 -1084.582)">
        <circle id="Ellipse_11-18" data-name="Ellipse 11" cx="2.5" cy="2.5" r="2.5" transform="translate(140.054 1084.582)" fill="#fff" opacity="0.67"/>
      </g>
      <g transform="translate(309.946 -1084.582)">
        <circle id="Ellipse_11-19" data-name="Ellipse 11" cx="2.5" cy="2.5" r="2.5" transform="translate(140.054 1084.582)" fill="#fff" opacity="0.67"/>
      </g>
      <g transform="translate(-140.054 -1059.582)">
        <circle id="Ellipse_11-20" data-name="Ellipse 11" cx="2.5" cy="2.5" r="2.5" transform="translate(140.054 1084.582)" fill="#fff" opacity="0.67"/>
      </g>
      <g transform="translate(-115.054 -1059.582)">
        <circle id="Ellipse_11-21" data-name="Ellipse 11" cx="2.5" cy="2.5" r="2.5" transform="translate(140.054 1084.582)" fill="#fff" opacity="0.67"/>
      </g>
      <g transform="translate(-90.054 -1059.582)">
        <circle id="Ellipse_11-22" data-name="Ellipse 11" cx="2.5" cy="2.5" r="2.5" transform="translate(140.054 1084.582)" fill="#fff" opacity="0.67"/>
      </g>
      <g transform="translate(-65.054 -1059.582)">
        <circle id="Ellipse_11-23" data-name="Ellipse 11" cx="2.5" cy="2.5" r="2.5" transform="translate(140.054 1084.582)" fill="#fff" opacity="0.67"/>
      </g>
      <g transform="translate(-40.054 -1059.582)">
        <circle id="Ellipse_11-24" data-name="Ellipse 11" cx="2.5" cy="2.5" r="2.5" transform="translate(140.054 1084.582)" fill="#fff" opacity="0.67"/>
      </g>
      <g transform="translate(-15.054 -1059.582)">
        <circle id="Ellipse_11-25" data-name="Ellipse 11" cx="2.5" cy="2.5" r="2.5" transform="translate(140.054 1084.582)" fill="#fff" opacity="0.67"/>
      </g>
      <g transform="translate(9.946 -1059.582)">
        <circle id="Ellipse_11-26" data-name="Ellipse 11" cx="2.5" cy="2.5" r="2.5" transform="translate(140.054 1084.582)" fill="#fff" opacity="0.67"/>
      </g>
      <g transform="translate(34.946 -1059.582)">
        <circle id="Ellipse_11-27" data-name="Ellipse 11" cx="2.5" cy="2.5" r="2.5" transform="translate(140.054 1084.582)" fill="#fff" opacity="0.67"/>
      </g>
      <g transform="translate(59.946 -1059.582)">
        <circle id="Ellipse_11-28" data-name="Ellipse 11" cx="2.5" cy="2.5" r="2.5" transform="translate(140.054 1084.582)" fill="#fff" opacity="0.67"/>
      </g>
      <g transform="translate(84.946 -1059.582)">
        <circle id="Ellipse_11-29" data-name="Ellipse 11" cx="2.5" cy="2.5" r="2.5" transform="translate(140.054 1084.582)" fill="#fff" opacity="0.67"/>
      </g>
      <g transform="translate(109.946 -1059.582)">
        <circle id="Ellipse_11-30" data-name="Ellipse 11" cx="2.5" cy="2.5" r="2.5" transform="translate(140.054 1084.582)" fill="#fff" opacity="0.67"/>
      </g>
      <g transform="translate(134.946 -1059.582)">
        <circle id="Ellipse_11-31" data-name="Ellipse 11" cx="2.5" cy="2.5" r="2.5" transform="translate(140.054 1084.582)" fill="#fff" opacity="0.67"/>
      </g>
      <g transform="translate(159.946 -1059.582)">
        <circle id="Ellipse_11-32" data-name="Ellipse 11" cx="2.5" cy="2.5" r="2.5" transform="translate(140.054 1084.582)" fill="#fff" opacity="0.67"/>
      </g>
      <g transform="translate(184.946 -1059.582)">
        <circle id="Ellipse_11-33" data-name="Ellipse 11" cx="2.5" cy="2.5" r="2.5" transform="translate(140.054 1084.582)" fill="#fff" opacity="0.67"/>
      </g>
      <g transform="translate(209.946 -1059.582)">
        <circle id="Ellipse_11-34" data-name="Ellipse 11" cx="2.5" cy="2.5" r="2.5" transform="translate(140.054 1084.582)" fill="#fff" opacity="0.67"/>
      </g>
      <g transform="translate(234.946 -1059.582)">
        <circle id="Ellipse_11-35" data-name="Ellipse 11" cx="2.5" cy="2.5" r="2.5" transform="translate(140.054 1084.582)" fill="#fff" opacity="0.67"/>
      </g>
      <g transform="translate(259.946 -1059.582)">
        <circle id="Ellipse_11-36" data-name="Ellipse 11" cx="2.5" cy="2.5" r="2.5" transform="translate(140.054 1084.582)" fill="#fff" opacity="0.67"/>
      </g>
      <g transform="translate(284.946 -1059.582)">
        <circle id="Ellipse_11-37" data-name="Ellipse 11" cx="2.5" cy="2.5" r="2.5" transform="translate(140.054 1084.582)" fill="#fff" opacity="0.67"/>
      </g>
      <g transform="translate(309.946 -1059.582)">
        <circle id="Ellipse_11-38" data-name="Ellipse 11" cx="2.5" cy="2.5" r="2.5" transform="translate(140.054 1084.582)" fill="#fff" opacity="0.67"/>
      </g>
      <g transform="translate(-140.054 -1034.582)">
        <circle id="Ellipse_11-39" data-name="Ellipse 11" cx="2.5" cy="2.5" r="2.5" transform="translate(140.054 1084.582)" fill="#fff" opacity="0.67"/>
      </g>
      <g transform="translate(-115.054 -1034.582)">
        <circle id="Ellipse_11-40" data-name="Ellipse 11" cx="2.5" cy="2.5" r="2.5" transform="translate(140.054 1084.582)" fill="#fff" opacity="0.67"/>
      </g>
      <g transform="translate(-90.054 -1034.582)">
        <circle id="Ellipse_11-41" data-name="Ellipse 11" cx="2.5" cy="2.5" r="2.5" transform="translate(140.054 1084.582)" fill="#fff" opacity="0.67"/>
      </g>
      <g transform="translate(-65.054 -1034.582)">
        <circle id="Ellipse_11-42" data-name="Ellipse 11" cx="2.5" cy="2.5" r="2.5" transform="translate(140.054 1084.582)" fill="#fff" opacity="0.67"/>
      </g>
      <g transform="translate(-40.054 -1034.582)">
        <circle id="Ellipse_11-43" data-name="Ellipse 11" cx="2.5" cy="2.5" r="2.5" transform="translate(140.054 1084.582)" fill="#fff" opacity="0.67"/>
      </g>
      <g transform="translate(-15.054 -1034.582)">
        <circle id="Ellipse_11-44" data-name="Ellipse 11" cx="2.5" cy="2.5" r="2.5" transform="translate(140.054 1084.582)" fill="#fff" opacity="0.67"/>
      </g>
      <g transform="translate(9.946 -1034.582)">
        <circle id="Ellipse_11-45" data-name="Ellipse 11" cx="2.5" cy="2.5" r="2.5" transform="translate(140.054 1084.582)" fill="#fff" opacity="0.67"/>
      </g>
      <g transform="translate(34.946 -1034.582)">
        <circle id="Ellipse_11-46" data-name="Ellipse 11" cx="2.5" cy="2.5" r="2.5" transform="translate(140.054 1084.582)" fill="#fff" opacity="0.67"/>
      </g>
      <g transform="translate(59.946 -1034.582)">
        <circle id="Ellipse_11-47" data-name="Ellipse 11" cx="2.5" cy="2.5" r="2.5" transform="translate(140.054 1084.582)" fill="#fff" opacity="0.67"/>
      </g>
      <g transform="translate(84.946 -1034.582)">
        <circle id="Ellipse_11-48" data-name="Ellipse 11" cx="2.5" cy="2.5" r="2.5" transform="translate(140.054 1084.582)" fill="#fff" opacity="0.67"/>
      </g>
      <g transform="translate(109.946 -1034.582)">
        <circle id="Ellipse_11-49" data-name="Ellipse 11" cx="2.5" cy="2.5" r="2.5" transform="translate(140.054 1084.582)" fill="#fff" opacity="0.67"/>
      </g>
      <g transform="translate(134.946 -1034.582)">
        <circle id="Ellipse_11-50" data-name="Ellipse 11" cx="2.5" cy="2.5" r="2.5" transform="translate(140.054 1084.582)" fill="#fff" opacity="0.67"/>
      </g>
      <g transform="translate(159.946 -1034.582)">
        <circle id="Ellipse_11-51" data-name="Ellipse 11" cx="2.5" cy="2.5" r="2.5" transform="translate(140.054 1084.582)" fill="#fff" opacity="0.67"/>
      </g>
      <g transform="translate(184.946 -1034.582)">
        <circle id="Ellipse_11-52" data-name="Ellipse 11" cx="2.5" cy="2.5" r="2.5" transform="translate(140.054 1084.582)" fill="#fff" opacity="0.67"/>
      </g>
      <g transform="translate(209.946 -1034.582)">
        <circle id="Ellipse_11-53" data-name="Ellipse 11" cx="2.5" cy="2.5" r="2.5" transform="translate(140.054 1084.582)" fill="#fff" opacity="0.67"/>
      </g>
      <g transform="translate(234.946 -1034.582)">
        <circle id="Ellipse_11-54" data-name="Ellipse 11" cx="2.5" cy="2.5" r="2.5" transform="translate(140.054 1084.582)" fill="#fff" opacity="0.67"/>
      </g>
      <g transform="translate(259.946 -1034.582)">
        <circle id="Ellipse_11-55" data-name="Ellipse 11" cx="2.5" cy="2.5" r="2.5" transform="translate(140.054 1084.582)" fill="#fff" opacity="0.67"/>
      </g>
      <g transform="translate(284.946 -1034.582)">
        <circle id="Ellipse_11-56" data-name="Ellipse 11" cx="2.5" cy="2.5" r="2.5" transform="translate(140.054 1084.582)" fill="#fff" opacity="0.67"/>
      </g>
      <g transform="translate(309.946 -1034.582)">
        <circle id="Ellipse_11-57" data-name="Ellipse 11" cx="2.5" cy="2.5" r="2.5" transform="translate(140.054 1084.582)" fill="#fff" opacity="0.67"/>
      </g>
      <g transform="translate(-140.054 -1009.582)">
        <circle id="Ellipse_11-58" data-name="Ellipse 11" cx="2.5" cy="2.5" r="2.5" transform="translate(140.054 1084.582)" fill="#fff" opacity="0.67"/>
      </g>
      <g transform="translate(-115.054 -1009.582)">
        <circle id="Ellipse_11-59" data-name="Ellipse 11" cx="2.5" cy="2.5" r="2.5" transform="translate(140.054 1084.582)" fill="#fff" opacity="0.67"/>
      </g>
      <g transform="translate(-90.054 -1009.582)">
        <circle id="Ellipse_11-60" data-name="Ellipse 11" cx="2.5" cy="2.5" r="2.5" transform="translate(140.054 1084.582)" fill="#fff" opacity="0.67"/>
      </g>
      <g transform="translate(-65.054 -1009.582)">
        <circle id="Ellipse_11-61" data-name="Ellipse 11" cx="2.5" cy="2.5" r="2.5" transform="translate(140.054 1084.582)" fill="#fff" opacity="0.67"/>
      </g>
      <g transform="translate(-40.054 -1009.582)">
        <circle id="Ellipse_11-62" data-name="Ellipse 11" cx="2.5" cy="2.5" r="2.5" transform="translate(140.054 1084.582)" fill="#fff" opacity="0.67"/>
      </g>
      <g transform="translate(-15.054 -1009.582)">
        <circle id="Ellipse_11-63" data-name="Ellipse 11" cx="2.5" cy="2.5" r="2.5" transform="translate(140.054 1084.582)" fill="#fff" opacity="0.67"/>
      </g>
      <g transform="translate(9.946 -1009.582)">
        <circle id="Ellipse_11-64" data-name="Ellipse 11" cx="2.5" cy="2.5" r="2.5" transform="translate(140.054 1084.582)" fill="#fff" opacity="0.67"/>
      </g>
      <g transform="translate(34.946 -1009.582)">
        <circle id="Ellipse_11-65" data-name="Ellipse 11" cx="2.5" cy="2.5" r="2.5" transform="translate(140.054 1084.582)" fill="#fff" opacity="0.67"/>
      </g>
      <g transform="translate(59.946 -1009.582)">
        <circle id="Ellipse_11-66" data-name="Ellipse 11" cx="2.5" cy="2.5" r="2.5" transform="translate(140.054 1084.582)" fill="#fff" opacity="0.67"/>
      </g>
      <g transform="translate(84.946 -1009.582)">
        <circle id="Ellipse_11-67" data-name="Ellipse 11" cx="2.5" cy="2.5" r="2.5" transform="translate(140.054 1084.582)" fill="#fff" opacity="0.67"/>
      </g>
      <g transform="translate(109.946 -1009.582)">
        <circle id="Ellipse_11-68" data-name="Ellipse 11" cx="2.5" cy="2.5" r="2.5" transform="translate(140.054 1084.582)" fill="#fff" opacity="0.67"/>
      </g>
      <g transform="translate(134.946 -1009.582)">
        <circle id="Ellipse_11-69" data-name="Ellipse 11" cx="2.5" cy="2.5" r="2.5" transform="translate(140.054 1084.582)" fill="#fff" opacity="0.67"/>
      </g>
      <g transform="translate(159.946 -1009.582)">
        <circle id="Ellipse_11-70" data-name="Ellipse 11" cx="2.5" cy="2.5" r="2.5" transform="translate(140.054 1084.582)" fill="#fff" opacity="0.67"/>
      </g>
      <g transform="translate(184.946 -1009.582)">
        <circle id="Ellipse_11-71" data-name="Ellipse 11" cx="2.5" cy="2.5" r="2.5" transform="translate(140.054 1084.582)" fill="#fff" opacity="0.67"/>
      </g>
      <g transform="translate(209.946 -1009.582)">
        <circle id="Ellipse_11-72" data-name="Ellipse 11" cx="2.5" cy="2.5" r="2.5" transform="translate(140.054 1084.582)" fill="#fff" opacity="0.67"/>
      </g>
      <g transform="translate(234.946 -1009.582)">
        <circle id="Ellipse_11-73" data-name="Ellipse 11" cx="2.5" cy="2.5" r="2.5" transform="translate(140.054 1084.582)" fill="#fff" opacity="0.67"/>
      </g>
      <g transform="translate(259.946 -1009.582)">
        <circle id="Ellipse_11-74" data-name="Ellipse 11" cx="2.5" cy="2.5" r="2.5" transform="translate(140.054 1084.582)" fill="#fff" opacity="0.67"/>
      </g>
      <g transform="translate(284.946 -1009.582)">
        <circle id="Ellipse_11-75" data-name="Ellipse 11" cx="2.5" cy="2.5" r="2.5" transform="translate(140.054 1084.582)" fill="#fff" opacity="0.67"/>
      </g>
      <g transform="translate(309.946 -1009.582)">
        <circle id="Ellipse_11-76" data-name="Ellipse 11" cx="2.5" cy="2.5" r="2.5" transform="translate(140.054 1084.582)" fill="#fff" opacity="0.67"/>
      </g>
      <g transform="translate(-140.054 -984.582)">
        <circle id="Ellipse_11-77" data-name="Ellipse 11" cx="2.5" cy="2.5" r="2.5" transform="translate(140.054 1084.582)" fill="#fff" opacity="0.67"/>
      </g>
      <g transform="translate(-115.054 -984.582)">
        <circle id="Ellipse_11-78" data-name="Ellipse 11" cx="2.5" cy="2.5" r="2.5" transform="translate(140.054 1084.582)" fill="#fff" opacity="0.67"/>
      </g>
      <g transform="translate(-90.054 -984.582)">
        <circle id="Ellipse_11-79" data-name="Ellipse 11" cx="2.5" cy="2.5" r="2.5" transform="translate(140.054 1084.582)" fill="#fff" opacity="0.67"/>
      </g>
      <g transform="translate(-65.054 -984.582)">
        <circle id="Ellipse_11-80" data-name="Ellipse 11" cx="2.5" cy="2.5" r="2.5" transform="translate(140.054 1084.582)" fill="#fff" opacity="0.67"/>
      </g>
      <g transform="translate(-40.054 -984.582)">
        <circle id="Ellipse_11-81" data-name="Ellipse 11" cx="2.5" cy="2.5" r="2.5" transform="translate(140.054 1084.582)" fill="#fff" opacity="0.67"/>
      </g>
      <g transform="translate(-15.054 -984.582)">
        <circle id="Ellipse_11-82" data-name="Ellipse 11" cx="2.5" cy="2.5" r="2.5" transform="translate(140.054 1084.582)" fill="#fff" opacity="0.67"/>
      </g>
      <g transform="translate(9.946 -984.582)">
        <circle id="Ellipse_11-83" data-name="Ellipse 11" cx="2.5" cy="2.5" r="2.5" transform="translate(140.054 1084.582)" fill="#fff" opacity="0.67"/>
      </g>
      <g transform="translate(34.946 -984.582)">
        <circle id="Ellipse_11-84" data-name="Ellipse 11" cx="2.5" cy="2.5" r="2.5" transform="translate(140.054 1084.582)" fill="#fff" opacity="0.67"/>
      </g>
      <g transform="translate(59.946 -984.582)">
        <circle id="Ellipse_11-85" data-name="Ellipse 11" cx="2.5" cy="2.5" r="2.5" transform="translate(140.054 1084.582)" fill="#fff" opacity="0.67"/>
      </g>
      <g transform="translate(84.946 -984.582)">
        <circle id="Ellipse_11-86" data-name="Ellipse 11" cx="2.5" cy="2.5" r="2.5" transform="translate(140.054 1084.582)" fill="#fff" opacity="0.67"/>
      </g>
      <g transform="translate(109.946 -984.582)">
        <circle id="Ellipse_11-87" data-name="Ellipse 11" cx="2.5" cy="2.5" r="2.5" transform="translate(140.054 1084.582)" fill="#fff" opacity="0.67"/>
      </g>
      <g transform="translate(134.946 -984.582)">
        <circle id="Ellipse_11-88" data-name="Ellipse 11" cx="2.5" cy="2.5" r="2.5" transform="translate(140.054 1084.582)" fill="#fff" opacity="0.67"/>
      </g>
      <g transform="translate(159.946 -984.582)">
        <circle id="Ellipse_11-89" data-name="Ellipse 11" cx="2.5" cy="2.5" r="2.5" transform="translate(140.054 1084.582)" fill="#fff" opacity="0.67"/>
      </g>
      <g transform="translate(184.946 -984.582)">
        <circle id="Ellipse_11-90" data-name="Ellipse 11" cx="2.5" cy="2.5" r="2.5" transform="translate(140.054 1084.582)" fill="#fff" opacity="0.67"/>
      </g>
      <g transform="translate(209.946 -984.582)">
        <circle id="Ellipse_11-91" data-name="Ellipse 11" cx="2.5" cy="2.5" r="2.5" transform="translate(140.054 1084.582)" fill="#fff" opacity="0.67"/>
      </g>
      <g transform="translate(234.946 -984.582)">
        <circle id="Ellipse_11-92" data-name="Ellipse 11" cx="2.5" cy="2.5" r="2.5" transform="translate(140.054 1084.582)" fill="#fff" opacity="0.67"/>
      </g>
      <g transform="translate(259.946 -984.582)">
        <circle id="Ellipse_11-93" data-name="Ellipse 11" cx="2.5" cy="2.5" r="2.5" transform="translate(140.054 1084.582)" fill="#fff" opacity="0.67"/>
      </g>
      <g transform="translate(284.946 -984.582)">
        <circle id="Ellipse_11-94" data-name="Ellipse 11" cx="2.5" cy="2.5" r="2.5" transform="translate(140.054 1084.582)" fill="#fff" opacity="0.67"/>
      </g>
      <g transform="translate(309.946 -984.582)">
        <circle id="Ellipse_11-95" data-name="Ellipse 11" cx="2.5" cy="2.5" r="2.5" transform="translate(140.054 1084.582)" fill="#fff" opacity="0.67"/>
      </g>
      <g transform="translate(-140.054 -959.582)">
        <circle id="Ellipse_11-96" data-name="Ellipse 11" cx="2.5" cy="2.5" r="2.5" transform="translate(140.054 1084.582)" fill="#fff" opacity="0.67"/>
      </g>
      <g transform="translate(-115.054 -959.582)">
        <circle id="Ellipse_11-97" data-name="Ellipse 11" cx="2.5" cy="2.5" r="2.5" transform="translate(140.054 1084.582)" fill="#fff" opacity="0.67"/>
      </g>
      <g transform="translate(-90.054 -959.582)">
        <circle id="Ellipse_11-98" data-name="Ellipse 11" cx="2.5" cy="2.5" r="2.5" transform="translate(140.054 1084.582)" fill="#fff" opacity="0.67"/>
      </g>
      <g transform="translate(-65.054 -959.582)">
        <circle id="Ellipse_11-99" data-name="Ellipse 11" cx="2.5" cy="2.5" r="2.5" transform="translate(140.054 1084.582)" fill="#fff" opacity="0.67"/>
      </g>
      <g transform="translate(-40.054 -959.582)">
        <circle id="Ellipse_11-100" data-name="Ellipse 11" cx="2.5" cy="2.5" r="2.5" transform="translate(140.054 1084.582)" fill="#fff" opacity="0.67"/>
      </g>
      <g transform="translate(-15.054 -959.582)">
        <circle id="Ellipse_11-101" data-name="Ellipse 11" cx="2.5" cy="2.5" r="2.5" transform="translate(140.054 1084.582)" fill="#fff" opacity="0.67"/>
      </g>
      <g transform="translate(9.946 -959.582)">
        <circle id="Ellipse_11-102" data-name="Ellipse 11" cx="2.5" cy="2.5" r="2.5" transform="translate(140.054 1084.582)" fill="#fff" opacity="0.67"/>
      </g>
      <g transform="translate(34.946 -959.582)">
        <circle id="Ellipse_11-103" data-name="Ellipse 11" cx="2.5" cy="2.5" r="2.5" transform="translate(140.054 1084.582)" fill="#fff" opacity="0.67"/>
      </g>
      <g transform="translate(59.946 -959.582)">
        <circle id="Ellipse_11-104" data-name="Ellipse 11" cx="2.5" cy="2.5" r="2.5" transform="translate(140.054 1084.582)" fill="#fff" opacity="0.67"/>
      </g>
      <g transform="translate(84.946 -959.582)">
        <circle id="Ellipse_11-105" data-name="Ellipse 11" cx="2.5" cy="2.5" r="2.5" transform="translate(140.054 1084.582)" fill="#fff" opacity="0.67"/>
      </g>
      <g transform="translate(109.946 -959.582)">
        <circle id="Ellipse_11-106" data-name="Ellipse 11" cx="2.5" cy="2.5" r="2.5" transform="translate(140.054 1084.582)" fill="#fff" opacity="0.67"/>
      </g>
      <g transform="translate(134.946 -959.582)">
        <circle id="Ellipse_11-107" data-name="Ellipse 11" cx="2.5" cy="2.5" r="2.5" transform="translate(140.054 1084.582)" fill="#fff" opacity="0.67"/>
      </g>
      <g transform="translate(159.946 -959.582)">
        <circle id="Ellipse_11-108" data-name="Ellipse 11" cx="2.5" cy="2.5" r="2.5" transform="translate(140.054 1084.582)" fill="#fff" opacity="0.67"/>
      </g>
      <g transform="translate(184.946 -959.582)">
        <circle id="Ellipse_11-109" data-name="Ellipse 11" cx="2.5" cy="2.5" r="2.5" transform="translate(140.054 1084.582)" fill="#fff" opacity="0.67"/>
      </g>
      <g transform="translate(209.946 -959.582)">
        <circle id="Ellipse_11-110" data-name="Ellipse 11" cx="2.5" cy="2.5" r="2.5" transform="translate(140.054 1084.582)" fill="#fff" opacity="0.67"/>
      </g>
      <g transform="translate(234.946 -959.582)">
        <circle id="Ellipse_11-111" data-name="Ellipse 11" cx="2.5" cy="2.5" r="2.5" transform="translate(140.054 1084.582)" fill="#fff" opacity="0.67"/>
      </g>
      <g transform="translate(259.946 -959.582)">
        <circle id="Ellipse_11-112" data-name="Ellipse 11" cx="2.5" cy="2.5" r="2.5" transform="translate(140.054 1084.582)" fill="#fff" opacity="0.67"/>
      </g>
      <g transform="translate(284.946 -959.582)">
        <circle id="Ellipse_11-113" data-name="Ellipse 11" cx="2.5" cy="2.5" r="2.5" transform="translate(140.054 1084.582)" fill="#fff" opacity="0.67"/>
      </g>
      <g transform="translate(309.946 -959.582)">
        <circle id="Ellipse_11-114" data-name="Ellipse 11" cx="2.5" cy="2.5" r="2.5" transform="translate(140.054 1084.582)" fill="#fff" opacity="0.67"/>
      </g>
      <g transform="translate(-140.054 -934.582)">
        <circle id="Ellipse_11-115" data-name="Ellipse 11" cx="2.5" cy="2.5" r="2.5" transform="translate(140.054 1084.582)" fill="#fff" opacity="0.67"/>
      </g>
      <g transform="translate(-115.054 -934.582)">
        <circle id="Ellipse_11-116" data-name="Ellipse 11" cx="2.5" cy="2.5" r="2.5" transform="translate(140.054 1084.582)" fill="#fff" opacity="0.67"/>
      </g>
      <g transform="translate(-90.054 -934.582)">
        <circle id="Ellipse_11-117" data-name="Ellipse 11" cx="2.5" cy="2.5" r="2.5" transform="translate(140.054 1084.582)" fill="#fff" opacity="0.67"/>
      </g>
      <g transform="translate(-65.054 -934.582)">
        <circle id="Ellipse_11-118" data-name="Ellipse 11" cx="2.5" cy="2.5" r="2.5" transform="translate(140.054 1084.582)" fill="#fff" opacity="0.67"/>
      </g>
      <g transform="translate(-40.054 -934.582)">
        <circle id="Ellipse_11-119" data-name="Ellipse 11" cx="2.5" cy="2.5" r="2.5" transform="translate(140.054 1084.582)" fill="#fff" opacity="0.67"/>
      </g>
      <g transform="translate(-15.054 -934.582)">
        <circle id="Ellipse_11-120" data-name="Ellipse 11" cx="2.5" cy="2.5" r="2.5" transform="translate(140.054 1084.582)" fill="#fff" opacity="0.67"/>
      </g>
      <g transform="translate(9.946 -934.582)">
        <circle id="Ellipse_11-121" data-name="Ellipse 11" cx="2.5" cy="2.5" r="2.5" transform="translate(140.054 1084.582)" fill="#fff" opacity="0.67"/>
      </g>
      <g transform="translate(34.946 -934.582)">
        <circle id="Ellipse_11-122" data-name="Ellipse 11" cx="2.5" cy="2.5" r="2.5" transform="translate(140.054 1084.582)" fill="#fff" opacity="0.67"/>
      </g>
      <g transform="translate(59.946 -934.582)">
        <circle id="Ellipse_11-123" data-name="Ellipse 11" cx="2.5" cy="2.5" r="2.5" transform="translate(140.054 1084.582)" fill="#fff" opacity="0.67"/>
      </g>
      <g transform="translate(84.946 -934.582)">
        <circle id="Ellipse_11-124" data-name="Ellipse 11" cx="2.5" cy="2.5" r="2.5" transform="translate(140.054 1084.582)" fill="#fff" opacity="0.67"/>
      </g>
      <g transform="translate(109.946 -934.582)">
        <circle id="Ellipse_11-125" data-name="Ellipse 11" cx="2.5" cy="2.5" r="2.5" transform="translate(140.054 1084.582)" fill="#fff" opacity="0.67"/>
      </g>
      <g transform="translate(134.946 -934.582)">
        <circle id="Ellipse_11-126" data-name="Ellipse 11" cx="2.5" cy="2.5" r="2.5" transform="translate(140.054 1084.582)" fill="#fff" opacity="0.67"/>
      </g>
      <g transform="translate(159.946 -934.582)">
        <circle id="Ellipse_11-127" data-name="Ellipse 11" cx="2.5" cy="2.5" r="2.5" transform="translate(140.054 1084.582)" fill="#fff" opacity="0.67"/>
      </g>
      <g transform="translate(184.946 -934.582)">
        <circle id="Ellipse_11-128" data-name="Ellipse 11" cx="2.5" cy="2.5" r="2.5" transform="translate(140.054 1084.582)" fill="#fff" opacity="0.67"/>
      </g>
      <g transform="translate(209.946 -934.582)">
        <circle id="Ellipse_11-129" data-name="Ellipse 11" cx="2.5" cy="2.5" r="2.5" transform="translate(140.054 1084.582)" fill="#fff" opacity="0.67"/>
      </g>
      <g transform="translate(234.946 -934.582)">
        <circle id="Ellipse_11-130" data-name="Ellipse 11" cx="2.5" cy="2.5" r="2.5" transform="translate(140.054 1084.582)" fill="#fff" opacity="0.67"/>
      </g>
      <g transform="translate(259.946 -934.582)">
        <circle id="Ellipse_11-131" data-name="Ellipse 11" cx="2.5" cy="2.5" r="2.5" transform="translate(140.054 1084.582)" fill="#fff" opacity="0.67"/>
      </g>
      <g transform="translate(284.946 -934.582)">
        <circle id="Ellipse_11-132" data-name="Ellipse 11" cx="2.5" cy="2.5" r="2.5" transform="translate(140.054 1084.582)" fill="#fff" opacity="0.67"/>
      </g>
      <g transform="translate(309.946 -934.582)">
        <circle id="Ellipse_11-133" data-name="Ellipse 11" cx="2.5" cy="2.5" r="2.5" transform="translate(140.054 1084.582)" fill="#fff" opacity="0.67"/>
      </g>
      <g transform="translate(-140.054 -909.582)">
        <circle id="Ellipse_11-134" data-name="Ellipse 11" cx="2.5" cy="2.5" r="2.5" transform="translate(140.054 1084.582)" fill="#fff" opacity="0.67"/>
      </g>
      <g transform="translate(-115.054 -909.582)">
        <circle id="Ellipse_11-135" data-name="Ellipse 11" cx="2.5" cy="2.5" r="2.5" transform="translate(140.054 1084.582)" fill="#fff" opacity="0.67"/>
      </g>
      <g transform="translate(-90.054 -909.582)">
        <circle id="Ellipse_11-136" data-name="Ellipse 11" cx="2.5" cy="2.5" r="2.5" transform="translate(140.054 1084.582)" fill="#fff" opacity="0.67"/>
      </g>
      <g transform="translate(-65.054 -909.582)">
        <circle id="Ellipse_11-137" data-name="Ellipse 11" cx="2.5" cy="2.5" r="2.5" transform="translate(140.054 1084.582)" fill="#fff" opacity="0.67"/>
      </g>
      <g transform="translate(-40.054 -909.582)">
        <circle id="Ellipse_11-138" data-name="Ellipse 11" cx="2.5" cy="2.5" r="2.5" transform="translate(140.054 1084.582)" fill="#fff" opacity="0.67"/>
      </g>
      <g transform="translate(-15.054 -909.582)">
        <circle id="Ellipse_11-139" data-name="Ellipse 11" cx="2.5" cy="2.5" r="2.5" transform="translate(140.054 1084.582)" fill="#fff" opacity="0.67"/>
      </g>
      <g transform="translate(9.946 -909.582)">
        <circle id="Ellipse_11-140" data-name="Ellipse 11" cx="2.5" cy="2.5" r="2.5" transform="translate(140.054 1084.582)" fill="#fff" opacity="0.67"/>
      </g>
      <g transform="translate(34.946 -909.582)">
        <circle id="Ellipse_11-141" data-name="Ellipse 11" cx="2.5" cy="2.5" r="2.5" transform="translate(140.054 1084.582)" fill="#fff" opacity="0.67"/>
      </g>
      <g transform="translate(59.946 -909.582)">
        <circle id="Ellipse_11-142" data-name="Ellipse 11" cx="2.5" cy="2.5" r="2.5" transform="translate(140.054 1084.582)" fill="#fff" opacity="0.67"/>
      </g>
      <g transform="translate(84.946 -909.582)">
        <circle id="Ellipse_11-143" data-name="Ellipse 11" cx="2.5" cy="2.5" r="2.5" transform="translate(140.054 1084.582)" fill="#fff" opacity="0.67"/>
      </g>
      <g transform="translate(109.946 -909.582)">
        <circle id="Ellipse_11-144" data-name="Ellipse 11" cx="2.5" cy="2.5" r="2.5" transform="translate(140.054 1084.582)" fill="#fff" opacity="0.67"/>
      </g>
      <g transform="translate(134.946 -909.582)">
        <circle id="Ellipse_11-145" data-name="Ellipse 11" cx="2.5" cy="2.5" r="2.5" transform="translate(140.054 1084.582)" fill="#fff" opacity="0.67"/>
      </g>
      <g transform="translate(159.946 -909.582)">
        <circle id="Ellipse_11-146" data-name="Ellipse 11" cx="2.5" cy="2.5" r="2.5" transform="translate(140.054 1084.582)" fill="#fff" opacity="0.67"/>
      </g>
      <g transform="translate(184.946 -909.582)">
        <circle id="Ellipse_11-147" data-name="Ellipse 11" cx="2.5" cy="2.5" r="2.5" transform="translate(140.054 1084.582)" fill="#fff" opacity="0.67"/>
      </g>
      <g transform="translate(209.946 -909.582)">
        <circle id="Ellipse_11-148" data-name="Ellipse 11" cx="2.5" cy="2.5" r="2.5" transform="translate(140.054 1084.582)" fill="#fff" opacity="0.67"/>
      </g>
      <g transform="translate(234.946 -909.582)">
        <circle id="Ellipse_11-149" data-name="Ellipse 11" cx="2.5" cy="2.5" r="2.5" transform="translate(140.054 1084.582)" fill="#fff" opacity="0.67"/>
      </g>
      <g transform="translate(259.946 -909.582)">
        <circle id="Ellipse_11-150" data-name="Ellipse 11" cx="2.5" cy="2.5" r="2.5" transform="translate(140.054 1084.582)" fill="#fff" opacity="0.67"/>
      </g>
      <g transform="translate(284.946 -909.582)">
        <circle id="Ellipse_11-151" data-name="Ellipse 11" cx="2.5" cy="2.5" r="2.5" transform="translate(140.054 1084.582)" fill="#fff" opacity="0.67"/>
      </g>
      <g transform="translate(309.946 -909.582)">
        <circle id="Ellipse_11-152" data-name="Ellipse 11" cx="2.5" cy="2.5" r="2.5" transform="translate(140.054 1084.582)" fill="#fff" opacity="0.67"/>
      </g>
      <g transform="translate(-140.054 -884.582)">
        <circle id="Ellipse_11-153" data-name="Ellipse 11" cx="2.5" cy="2.5" r="2.5" transform="translate(140.054 1084.582)" fill="#fff" opacity="0.67"/>
      </g>
      <g transform="translate(-115.054 -884.582)">
        <circle id="Ellipse_11-154" data-name="Ellipse 11" cx="2.5" cy="2.5" r="2.5" transform="translate(140.054 1084.582)" fill="#fff" opacity="0.67"/>
      </g>
      <g transform="translate(-90.054 -884.582)">
        <circle id="Ellipse_11-155" data-name="Ellipse 11" cx="2.5" cy="2.5" r="2.5" transform="translate(140.054 1084.582)" fill="#fff" opacity="0.67"/>
      </g>
      <g transform="translate(-65.054 -884.582)">
        <circle id="Ellipse_11-156" data-name="Ellipse 11" cx="2.5" cy="2.5" r="2.5" transform="translate(140.054 1084.582)" fill="#fff" opacity="0.67"/>
      </g>
      <g transform="translate(-40.054 -884.582)">
        <circle id="Ellipse_11-157" data-name="Ellipse 11" cx="2.5" cy="2.5" r="2.5" transform="translate(140.054 1084.582)" fill="#fff" opacity="0.67"/>
      </g>
      <g transform="translate(-15.054 -884.582)">
        <circle id="Ellipse_11-158" data-name="Ellipse 11" cx="2.5" cy="2.5" r="2.5" transform="translate(140.054 1084.582)" fill="#fff" opacity="0.67"/>
      </g>
      <g transform="translate(9.946 -884.582)">
        <circle id="Ellipse_11-159" data-name="Ellipse 11" cx="2.5" cy="2.5" r="2.5" transform="translate(140.054 1084.582)" fill="#fff" opacity="0.67"/>
      </g>
      <g transform="translate(34.946 -884.582)">
        <circle id="Ellipse_11-160" data-name="Ellipse 11" cx="2.5" cy="2.5" r="2.5" transform="translate(140.054 1084.582)" fill="#fff" opacity="0.67"/>
      </g>
      <g transform="translate(59.946 -884.582)">
        <circle id="Ellipse_11-161" data-name="Ellipse 11" cx="2.5" cy="2.5" r="2.5" transform="translate(140.054 1084.582)" fill="#fff" opacity="0.67"/>
      </g>
      <g transform="translate(84.946 -884.582)">
        <circle id="Ellipse_11-162" data-name="Ellipse 11" cx="2.5" cy="2.5" r="2.5" transform="translate(140.054 1084.582)" fill="#fff" opacity="0.67"/>
      </g>
      <g transform="translate(109.946 -884.582)">
        <circle id="Ellipse_11-163" data-name="Ellipse 11" cx="2.5" cy="2.5" r="2.5" transform="translate(140.054 1084.582)" fill="#fff" opacity="0.67"/>
      </g>
      <g transform="translate(134.946 -884.582)">
        <circle id="Ellipse_11-164" data-name="Ellipse 11" cx="2.5" cy="2.5" r="2.5" transform="translate(140.054 1084.582)" fill="#fff" opacity="0.67"/>
      </g>
      <g transform="translate(159.946 -884.582)">
        <circle id="Ellipse_11-165" data-name="Ellipse 11" cx="2.5" cy="2.5" r="2.5" transform="translate(140.054 1084.582)" fill="#fff" opacity="0.67"/>
      </g>
      <g transform="translate(184.946 -884.582)">
        <circle id="Ellipse_11-166" data-name="Ellipse 11" cx="2.5" cy="2.5" r="2.5" transform="translate(140.054 1084.582)" fill="#fff" opacity="0.67"/>
      </g>
      <g transform="translate(209.946 -884.582)">
        <circle id="Ellipse_11-167" data-name="Ellipse 11" cx="2.5" cy="2.5" r="2.5" transform="translate(140.054 1084.582)" fill="#fff" opacity="0.67"/>
      </g>
      <g transform="translate(234.946 -884.582)">
        <circle id="Ellipse_11-168" data-name="Ellipse 11" cx="2.5" cy="2.5" r="2.5" transform="translate(140.054 1084.582)" fill="#fff" opacity="0.67"/>
      </g>
      <g transform="translate(259.946 -884.582)">
        <circle id="Ellipse_11-169" data-name="Ellipse 11" cx="2.5" cy="2.5" r="2.5" transform="translate(140.054 1084.582)" fill="#fff" opacity="0.67"/>
      </g>
      <g transform="translate(284.946 -884.582)">
        <circle id="Ellipse_11-170" data-name="Ellipse 11" cx="2.5" cy="2.5" r="2.5" transform="translate(140.054 1084.582)" fill="#fff" opacity="0.67"/>
      </g>
      <g transform="translate(309.946 -884.582)">
        <circle id="Ellipse_11-171" data-name="Ellipse 11" cx="2.5" cy="2.5" r="2.5" transform="translate(140.054 1084.582)" fill="#fff" opacity="0.67"/>
      </g>
      <g transform="translate(-140.054 -859.582)">
        <circle id="Ellipse_11-172" data-name="Ellipse 11" cx="2.5" cy="2.5" r="2.5" transform="translate(140.054 1084.582)" fill="#fff" opacity="0.67"/>
      </g>
      <g transform="translate(-115.054 -859.582)">
        <circle id="Ellipse_11-173" data-name="Ellipse 11" cx="2.5" cy="2.5" r="2.5" transform="translate(140.054 1084.582)" fill="#fff" opacity="0.67"/>
      </g>
      <g transform="translate(-90.054 -859.582)">
        <circle id="Ellipse_11-174" data-name="Ellipse 11" cx="2.5" cy="2.5" r="2.5" transform="translate(140.054 1084.582)" fill="#fff" opacity="0.67"/>
      </g>
      <g transform="translate(-65.054 -859.582)">
        <circle id="Ellipse_11-175" data-name="Ellipse 11" cx="2.5" cy="2.5" r="2.5" transform="translate(140.054 1084.582)" fill="#fff" opacity="0.67"/>
      </g>
      <g transform="translate(-40.054 -859.582)">
        <circle id="Ellipse_11-176" data-name="Ellipse 11" cx="2.5" cy="2.5" r="2.5" transform="translate(140.054 1084.582)" fill="#fff" opacity="0.67"/>
      </g>
      <g transform="translate(-15.054 -859.582)">
        <circle id="Ellipse_11-177" data-name="Ellipse 11" cx="2.5" cy="2.5" r="2.5" transform="translate(140.054 1084.582)" fill="#fff" opacity="0.67"/>
      </g>
      <g transform="translate(9.946 -859.582)">
        <circle id="Ellipse_11-178" data-name="Ellipse 11" cx="2.5" cy="2.5" r="2.5" transform="translate(140.054 1084.582)" fill="#fff" opacity="0.67"/>
      </g>
      <g transform="translate(34.946 -859.582)">
        <circle id="Ellipse_11-179" data-name="Ellipse 11" cx="2.5" cy="2.5" r="2.5" transform="translate(140.054 1084.582)" fill="#fff" opacity="0.67"/>
      </g>
      <g transform="translate(59.946 -859.582)">
        <circle id="Ellipse_11-180" data-name="Ellipse 11" cx="2.5" cy="2.5" r="2.5" transform="translate(140.054 1084.582)" fill="#fff" opacity="0.67"/>
      </g>
      <g transform="translate(84.946 -859.582)">
        <circle id="Ellipse_11-181" data-name="Ellipse 11" cx="2.5" cy="2.5" r="2.5" transform="translate(140.054 1084.582)" fill="#fff" opacity="0.67"/>
      </g>
      <g transform="translate(109.946 -859.582)">
        <circle id="Ellipse_11-182" data-name="Ellipse 11" cx="2.5" cy="2.5" r="2.5" transform="translate(140.054 1084.582)" fill="#fff" opacity="0.67"/>
      </g>
      <g transform="translate(134.946 -859.582)">
        <circle id="Ellipse_11-183" data-name="Ellipse 11" cx="2.5" cy="2.5" r="2.5" transform="translate(140.054 1084.582)" fill="#fff" opacity="0.67"/>
      </g>
      <g transform="translate(159.946 -859.582)">
        <circle id="Ellipse_11-184" data-name="Ellipse 11" cx="2.5" cy="2.5" r="2.5" transform="translate(140.054 1084.582)" fill="#fff" opacity="0.67"/>
      </g>
      <g transform="translate(184.946 -859.582)">
        <circle id="Ellipse_11-185" data-name="Ellipse 11" cx="2.5" cy="2.5" r="2.5" transform="translate(140.054 1084.582)" fill="#fff" opacity="0.67"/>
      </g>
      <g transform="translate(209.946 -859.582)">
        <circle id="Ellipse_11-186" data-name="Ellipse 11" cx="2.5" cy="2.5" r="2.5" transform="translate(140.054 1084.582)" fill="#fff" opacity="0.67"/>
      </g>
      <g transform="translate(234.946 -859.582)">
        <circle id="Ellipse_11-187" data-name="Ellipse 11" cx="2.5" cy="2.5" r="2.5" transform="translate(140.054 1084.582)" fill="#fff" opacity="0.67"/>
      </g>
      <g transform="translate(259.946 -859.582)">
        <circle id="Ellipse_11-188" data-name="Ellipse 11" cx="2.5" cy="2.5" r="2.5" transform="translate(140.054 1084.582)" fill="#fff" opacity="0.67"/>
      </g>
      <g transform="translate(284.946 -859.582)">
        <circle id="Ellipse_11-189" data-name="Ellipse 11" cx="2.5" cy="2.5" r="2.5" transform="translate(140.054 1084.582)" fill="#fff" opacity="0.67"/>
      </g>
      <g transform="translate(309.946 -859.582)">
        <circle id="Ellipse_11-190" data-name="Ellipse 11" cx="2.5" cy="2.5" r="2.5" transform="translate(140.054 1084.582)" fill="#fff" opacity="0.67"/>
      </g>
      <g transform="translate(-140.054 -834.582)">
        <circle id="Ellipse_11-191" data-name="Ellipse 11" cx="2.5" cy="2.5" r="2.5" transform="translate(140.054 1084.582)" fill="#fff" opacity="0.67"/>
      </g>
      <g transform="translate(-115.054 -834.582)">
        <circle id="Ellipse_11-192" data-name="Ellipse 11" cx="2.5" cy="2.5" r="2.5" transform="translate(140.054 1084.582)" fill="#fff" opacity="0.67"/>
      </g>
      <g transform="translate(-90.054 -834.582)">
        <circle id="Ellipse_11-193" data-name="Ellipse 11" cx="2.5" cy="2.5" r="2.5" transform="translate(140.054 1084.582)" fill="#fff" opacity="0.67"/>
      </g>
      <g transform="translate(-65.054 -834.582)">
        <circle id="Ellipse_11-194" data-name="Ellipse 11" cx="2.5" cy="2.5" r="2.5" transform="translate(140.054 1084.582)" fill="#fff" opacity="0.67"/>
      </g>
      <g transform="translate(-40.054 -834.582)">
        <circle id="Ellipse_11-195" data-name="Ellipse 11" cx="2.5" cy="2.5" r="2.5" transform="translate(140.054 1084.582)" fill="#fff" opacity="0.67"/>
      </g>
      <g transform="translate(-15.054 -834.582)">
        <circle id="Ellipse_11-196" data-name="Ellipse 11" cx="2.5" cy="2.5" r="2.5" transform="translate(140.054 1084.582)" fill="#fff" opacity="0.67"/>
      </g>
      <g transform="translate(9.946 -834.582)">
        <circle id="Ellipse_11-197" data-name="Ellipse 11" cx="2.5" cy="2.5" r="2.5" transform="translate(140.054 1084.582)" fill="#fff" opacity="0.67"/>
      </g>
      <g transform="translate(34.946 -834.582)">
        <circle id="Ellipse_11-198" data-name="Ellipse 11" cx="2.5" cy="2.5" r="2.5" transform="translate(140.054 1084.582)" fill="#fff" opacity="0.67"/>
      </g>
      <g transform="translate(59.946 -834.582)">
        <circle id="Ellipse_11-199" data-name="Ellipse 11" cx="2.5" cy="2.5" r="2.5" transform="translate(140.054 1084.582)" fill="#fff" opacity="0.67"/>
      </g>
      <g transform="translate(84.946 -834.582)">
        <circle id="Ellipse_11-200" data-name="Ellipse 11" cx="2.5" cy="2.5" r="2.5" transform="translate(140.054 1084.582)" fill="#fff" opacity="0.67"/>
      </g>
      <g transform="translate(109.946 -834.582)">
        <circle id="Ellipse_11-201" data-name="Ellipse 11" cx="2.5" cy="2.5" r="2.5" transform="translate(140.054 1084.582)" fill="#fff" opacity="0.67"/>
      </g>
      <g transform="translate(134.946 -834.582)">
        <circle id="Ellipse_11-202" data-name="Ellipse 11" cx="2.5" cy="2.5" r="2.5" transform="translate(140.054 1084.582)" fill="#fff" opacity="0.67"/>
      </g>
      <g transform="translate(159.946 -834.582)">
        <circle id="Ellipse_11-203" data-name="Ellipse 11" cx="2.5" cy="2.5" r="2.5" transform="translate(140.054 1084.582)" fill="#fff" opacity="0.67"/>
      </g>
      <g transform="translate(184.946 -834.582)">
        <circle id="Ellipse_11-204" data-name="Ellipse 11" cx="2.5" cy="2.5" r="2.5" transform="translate(140.054 1084.582)" fill="#fff" opacity="0.67"/>
      </g>
      <g transform="translate(209.946 -834.582)">
        <circle id="Ellipse_11-205" data-name="Ellipse 11" cx="2.5" cy="2.5" r="2.5" transform="translate(140.054 1084.582)" fill="#fff" opacity="0.67"/>
      </g>
      <g transform="translate(234.946 -834.582)">
        <circle id="Ellipse_11-206" data-name="Ellipse 11" cx="2.5" cy="2.5" r="2.5" transform="translate(140.054 1084.582)" fill="#fff" opacity="0.67"/>
      </g>
      <g transform="translate(259.946 -834.582)">
        <circle id="Ellipse_11-207" data-name="Ellipse 11" cx="2.5" cy="2.5" r="2.5" transform="translate(140.054 1084.582)" fill="#fff" opacity="0.67"/>
      </g>
      <g transform="translate(284.946 -834.582)">
        <circle id="Ellipse_11-208" data-name="Ellipse 11" cx="2.5" cy="2.5" r="2.5" transform="translate(140.054 1084.582)" fill="#fff" opacity="0.67"/>
      </g>
      <g transform="translate(309.946 -834.582)">
        <circle id="Ellipse_11-209" data-name="Ellipse 11" cx="2.5" cy="2.5" r="2.5" transform="translate(140.054 1084.582)" fill="#fff" opacity="0.67"/>
      </g>
      <g transform="translate(-140.054 -809.582)">
        <circle id="Ellipse_11-210" data-name="Ellipse 11" cx="2.5" cy="2.5" r="2.5" transform="translate(140.054 1084.582)" fill="#fff" opacity="0.67"/>
      </g>
      <g transform="translate(-115.054 -809.582)">
        <circle id="Ellipse_11-211" data-name="Ellipse 11" cx="2.5" cy="2.5" r="2.5" transform="translate(140.054 1084.582)" fill="#fff" opacity="0.67"/>
      </g>
      <g transform="translate(-90.054 -809.582)">
        <circle id="Ellipse_11-212" data-name="Ellipse 11" cx="2.5" cy="2.5" r="2.5" transform="translate(140.054 1084.582)" fill="#fff" opacity="0.67"/>
      </g>
      <g transform="translate(-65.054 -809.582)">
        <circle id="Ellipse_11-213" data-name="Ellipse 11" cx="2.5" cy="2.5" r="2.5" transform="translate(140.054 1084.582)" fill="#fff" opacity="0.67"/>
      </g>
      <g transform="translate(-40.054 -809.582)">
        <circle id="Ellipse_11-214" data-name="Ellipse 11" cx="2.5" cy="2.5" r="2.5" transform="translate(140.054 1084.582)" fill="#fff" opacity="0.67"/>
      </g>
      <g transform="translate(-15.054 -809.582)">
        <circle id="Ellipse_11-215" data-name="Ellipse 11" cx="2.5" cy="2.5" r="2.5" transform="translate(140.054 1084.582)" fill="#fff" opacity="0.67"/>
      </g>
      <g transform="translate(9.946 -809.582)">
        <circle id="Ellipse_11-216" data-name="Ellipse 11" cx="2.5" cy="2.5" r="2.5" transform="translate(140.054 1084.582)" fill="#fff" opacity="0.67"/>
      </g>
      <g transform="translate(34.946 -809.582)">
        <circle id="Ellipse_11-217" data-name="Ellipse 11" cx="2.5" cy="2.5" r="2.5" transform="translate(140.054 1084.582)" fill="#fff" opacity="0.67"/>
      </g>
      <g transform="translate(59.946 -809.582)">
        <circle id="Ellipse_11-218" data-name="Ellipse 11" cx="2.5" cy="2.5" r="2.5" transform="translate(140.054 1084.582)" fill="#fff" opacity="0.67"/>
      </g>
      <g transform="translate(84.946 -809.582)">
        <circle id="Ellipse_11-219" data-name="Ellipse 11" cx="2.5" cy="2.5" r="2.5" transform="translate(140.054 1084.582)" fill="#fff" opacity="0.67"/>
      </g>
      <g transform="translate(109.946 -809.582)">
        <circle id="Ellipse_11-220" data-name="Ellipse 11" cx="2.5" cy="2.5" r="2.5" transform="translate(140.054 1084.582)" fill="#fff" opacity="0.67"/>
      </g>
      <g transform="translate(134.946 -809.582)">
        <circle id="Ellipse_11-221" data-name="Ellipse 11" cx="2.5" cy="2.5" r="2.5" transform="translate(140.054 1084.582)" fill="#fff" opacity="0.67"/>
      </g>
      <g transform="translate(159.946 -809.582)">
        <circle id="Ellipse_11-222" data-name="Ellipse 11" cx="2.5" cy="2.5" r="2.5" transform="translate(140.054 1084.582)" fill="#fff" opacity="0.67"/>
      </g>
      <g transform="translate(184.946 -809.582)">
        <circle id="Ellipse_11-223" data-name="Ellipse 11" cx="2.5" cy="2.5" r="2.5" transform="translate(140.054 1084.582)" fill="#fff" opacity="0.67"/>
      </g>
      <g transform="translate(209.946 -809.582)">
        <circle id="Ellipse_11-224" data-name="Ellipse 11" cx="2.5" cy="2.5" r="2.5" transform="translate(140.054 1084.582)" fill="#fff" opacity="0.67"/>
      </g>
      <g transform="translate(234.946 -809.582)">
        <circle id="Ellipse_11-225" data-name="Ellipse 11" cx="2.5" cy="2.5" r="2.5" transform="translate(140.054 1084.582)" fill="#fff" opacity="0.67"/>
      </g>
      <g transform="translate(259.946 -809.582)">
        <circle id="Ellipse_11-226" data-name="Ellipse 11" cx="2.5" cy="2.5" r="2.5" transform="translate(140.054 1084.582)" fill="#fff" opacity="0.67"/>
      </g>
      <g transform="translate(284.946 -809.582)">
        <circle id="Ellipse_11-227" data-name="Ellipse 11" cx="2.5" cy="2.5" r="2.5" transform="translate(140.054 1084.582)" fill="#fff" opacity="0.67"/>
      </g>
      <g transform="translate(309.946 -809.582)">
        <circle id="Ellipse_11-228" data-name="Ellipse 11" cx="2.5" cy="2.5" r="2.5" transform="translate(140.054 1084.582)" fill="#fff" opacity="0.67"/>
      </g>
    </g>
  </g>
</svg>
